<svg xmlns="http://www.w3.org/2000/svg" viewBox="0 0 237.93 238"><defs><style>.cls-1{fill:#fff;}</style></defs><g id="Layer_2" data-name="Layer 2"><g id="Layer_1-2" data-name="Layer 1"><path class="cls-1" d="M119.47,139.59a1.11,1.11,0,0,1-2.12,0c-7.44-22.35-22.45-30.42-45.13-32.54-8-.75-16.13-.77-24.09-1.9A61.3,61.3,0,0,1,18.26,92.76c-10-7.83-11.56-15.22-6-26.52,6.57-13.42,17-27.09,27.3-35.79a1.11,1.11,0,0,1,1.83.89v0c-.53,7.81,2.8,13.75,8.82,18.4,7.57,5.84,16.5,8.45,25.51,11A202.92,202.92,0,0,1,96,67.08c13.11,5.2,20.24,15.13,21.46,29.23v0a.87.87,0,0,0,1.73,0c0-.21.06-.43.08-.65,1.32-14.17,8.77-23.94,21.91-28.85,9.15-3.42,18.89-5.27,28-8.74a86.48,86.48,0,0,0,19-10.15c5.27-3.73,7.38-9.46,7.84-16.32A1.12,1.12,0,0,1,198,31c3.77,3.78,7.77,7.38,10.87,11.65a255.05,255.05,0,0,1,16.11,25c4.91,8.75,3.49,15.71-3.78,22.62-9,8.58-20.21,12.91-32.25,14.83-7.3,1.18-14.78,1.31-22.19,1.8C144.54,108.37,126.75,116,119.47,139.59Z"/><path class="cls-1" d="M127.89,238a1.13,1.13,0,0,1-1.2-.93,10.89,10.89,0,0,1-.23-1.72c.15-21.51,0-43,.6-64.53a62.09,62.09,0,0,1,8.84-31.17c9.67-15.76,24.93-20.06,42.19-21,11.3-.62,22.79-1.49,33.72-4.16,8.06-2,15.47-6.58,23.41-10.35a1.11,1.11,0,0,1,1.58.85c4.24,31.42-3.53,60.54-23.14,86.33C192.22,219.54,163.42,234.72,127.89,238Z"/><path class="cls-1" d="M110.16,237.5C40.74,234.65-9.45,166.37,1.5,104.92a1.12,1.12,0,0,1,1.6-.81c7.15,3.56,14.18,8.13,21.87,10.06,10.91,2.74,22.37,3.53,33.64,4.47,9.66.81,19.24,1.42,28,6.18,14.69,8,20.69,21.6,23.32,37.09a124.94,124.94,0,0,1,1.51,19.34c.21,17.23.08,34.45.07,51.68,0,1.17-.09,2.35-.16,3.52A1.11,1.11,0,0,1,110.16,237.5Z"/><ellipse class="cls-1" cx="117.43" cy="26.82" rx="60.62" ry="26.82"/></g></g></svg>