<svg xmlns="http://www.w3.org/2000/svg" viewBox="0 0 707.96 238"><defs><style>.cls-1{fill:#fff;}</style></defs><g id="Layer_2" data-name="Layer 2"><g id="Layer_1-2" data-name="Layer 1"><path class="cls-1" d="M288.31,48.92V75.34H320V48.92h10.63v62.49H320V84.9H288.31v26.51H277.78V48.92Z"/><path class="cls-1" d="M336.52,101.5V48.92H381v9.82H347.05v16.6H377.4V85H347.05v16.6H381v9.82H342.32Z"/><path class="cls-1" d="M383.56,111.41l22.68-62.49h10.62L402.75,88.11h22.77l-10.45-29.9h10.54l18.92,53.2h-11l-4.91-13.66h-29.1l-4.91,13.66Zm70.79,0L449.53,97v-48h22.23a31.31,31.31,0,0,1,22.67,9,30.07,30.07,0,0,1,9.38,22.23,29.83,29.83,0,0,1-9.24,22.22,31.41,31.41,0,0,1-22.81,9Zm5.8-9.91h11.61q9.56,0,15.58-6.07a20.8,20.8,0,0,0,6-15.26,20.75,20.75,0,0,0-6-15.31q-6-6-15.58-6H460.15Z"/><path class="cls-1" d="M506,48.92h10.89l11.69,53.74,13-53.74H554.6l14.55,62.49H559l-10.8-48.56-11.24,48.56H520.68Zm62.13,50.62L579,48.92h11L578.08,99.54Z"/><path class="cls-1" d="M614.23,48.92h10.62l-14.1,39.19h22.76l-10.44-29.9H633.6l18.93,53.2h-11l-4.91-13.66h-29.1l-4.91,13.66H591.56Z"/><path class="cls-1" d="M664.58,48.92l21.42,42v20.53H675.38V91.23L653.15,48.92Zm32,0H708L693.32,77H682.08Z"/><path class="cls-1" d="M284.65,137.58a30.64,30.64,0,0,1,22.5-9.28,29.63,29.63,0,0,1,17.14,5.13,31.48,31.48,0,0,1,11.25,13.79L325.36,150a20,20,0,0,0-7.32-8.48,19.6,19.6,0,0,0-10.89-3.13,20.08,20.08,0,0,0-15.09,6.34A21.65,21.65,0,0,0,286,160.25a21.41,21.41,0,0,0,6,15.4,20.06,20.06,0,0,0,15.13,6.3,19.68,19.68,0,0,0,12.5-4.2,20.18,20.18,0,0,0,7.14-11.51l-19.46.08-.18-9.1h30v3.93q0,13.31-8.52,22.14t-21.47,8.83a30.49,30.49,0,0,1-22.5-9.37,32.12,32.12,0,0,1,0-45.17Z"/><path class="cls-1" d="M340.63,191.41V128.92h27a20.73,20.73,0,0,1,21.07,20.71A18.69,18.69,0,0,1,385,161.19a19.13,19.13,0,0,1-9.78,6.92l14.37,23.3H378.12l-13.57-22H351.16v22Zm26.6-31.24a11.16,11.16,0,0,0,8-3.08,10.39,10.39,0,0,0,3.22-7.82,10.65,10.65,0,0,0-3-7.67,10.28,10.28,0,0,0-7.81-3.13H351.16v21.7Z"/><path class="cls-1" d="M400.34,137.58a30.64,30.64,0,0,1,22.5-9.28,30.28,30.28,0,0,1,22.32,9.37q9.29,9.38,9.33,16c0,4.44,0,6.71,0,6.83a31.69,31.69,0,0,1-54.19,22.23,32.12,32.12,0,0,1,0-45.17Zm1.34,22.67a21.73,21.73,0,0,0,6,15.49,21,21,0,0,0,30.17,0,21.73,21.73,0,0,0,6-15.49,22,22,0,0,0-6.07-15.62,20.84,20.84,0,0,0-30.09,0A22,22,0,0,0,401.68,160.25Z"/><path class="cls-1" d="M468.55,129v37.05q0,7.32,4.59,11.69a15.57,15.57,0,0,0,21.65,0q4.63-4.37,4.64-11.69V129h10.63v37.05q0,11.5-7.5,18.74a27.4,27.4,0,0,1-37.09.18q-7.55-7.14-7.55-18.92V129Z"/><path class="cls-1" d="M515.41,191.41V128.92h27.05a20.75,20.75,0,0,1,21.07,20.89,19.92,19.92,0,0,1-5.94,14.68,20.79,20.79,0,0,1-15.13,6l-16.43.09v20.8ZM526,161.06h15.8a10.86,10.86,0,0,0,8.31-3.35,11.53,11.53,0,0,0,3.12-8.17,10.85,10.85,0,0,0-3.08-7.94,11.15,11.15,0,0,0-8.35-3.13l-15.8.09Z"/><path class="cls-1" d="M119.47,139.59a1.11,1.11,0,0,1-2.12,0c-7.44-22.35-22.45-30.42-45.13-32.54-8-.75-16.13-.77-24.09-1.9A61.3,61.3,0,0,1,18.26,92.76c-10-7.83-11.56-15.22-6-26.52,6.57-13.42,17-27.09,27.3-35.79a1.11,1.11,0,0,1,1.83.89v0c-.53,7.81,2.8,13.75,8.82,18.4,7.57,5.84,16.5,8.45,25.51,11A202.92,202.92,0,0,1,96,67.08c13.11,5.2,20.24,15.13,21.46,29.23v0a.87.87,0,0,0,1.73,0c0-.21.06-.43.08-.65,1.32-14.17,8.77-23.94,21.91-28.85,9.15-3.42,18.89-5.27,28-8.74a86.48,86.48,0,0,0,19-10.15c5.27-3.73,7.38-9.46,7.84-16.32A1.12,1.12,0,0,1,198,31c3.77,3.78,7.77,7.38,10.87,11.65a255.05,255.05,0,0,1,16.11,25c4.91,8.75,3.49,15.71-3.78,22.62-9,8.58-20.21,12.91-32.25,14.83-7.3,1.18-14.78,1.31-22.19,1.8C144.54,108.37,126.75,116,119.47,139.59Z"/><path class="cls-1" d="M127.89,238a1.13,1.13,0,0,1-1.2-.93,10.89,10.89,0,0,1-.23-1.72c.15-21.51,0-43,.6-64.53a62.09,62.09,0,0,1,8.84-31.17c9.67-15.76,24.93-20.06,42.19-21,11.3-.62,22.79-1.49,33.72-4.16,8.06-2,15.47-6.58,23.41-10.35a1.11,1.11,0,0,1,1.58.85c4.24,31.42-3.53,60.54-23.14,86.33C192.22,219.54,163.42,234.72,127.89,238Z"/><path class="cls-1" d="M110.16,237.5C40.74,234.65-9.45,166.37,1.5,104.92a1.12,1.12,0,0,1,1.6-.81c7.15,3.56,14.18,8.13,21.87,10.06,10.91,2.74,22.37,3.53,33.64,4.47,9.66.81,19.24,1.42,28,6.18,14.69,8,20.69,21.6,23.32,37.09a124.94,124.94,0,0,1,1.51,19.34c.21,17.23.08,34.45.07,51.68,0,1.17-.09,2.35-.16,3.52A1.11,1.11,0,0,1,110.16,237.5Z"/><ellipse class="cls-1" cx="117.43" cy="26.82" rx="60.62" ry="26.82"/></g></g></svg>